<?xml version="1.0" encoding="utf-8"?>
<!-- Generator: Adobe Illustrator 24.0.3, SVG Export Plug-In . SVG Version: 6.00 Build 0)  -->
<svg version="1.0" id="Layer_1" xmlns="http://www.w3.org/2000/svg" xmlns:xlink="http://www.w3.org/1999/xlink" x="0px" y="0px"
	 viewBox="0 0 1455 1455" enable-background="new 0 0 1455 1455" xml:space="preserve">
<g>
	<g>
		<defs>
			<circle id="SVGID_1_" cx="727.5" cy="727.5" r="517.44"/>
		</defs>
		<clipPath id="SVGID_2_">
			<use xlink:href="#SVGID_1_"  overflow="visible"/>
		</clipPath>
		<g clip-path="url(#SVGID_2_)">
			<path d="M901.56,702.49c-7.66,0-24.26-3.77-26.13-4.2c-3.77-0.87-6.12-4.62-5.25-8.39c0.87-3.77,4.63-6.12,8.39-5.25
				c6.46,1.49,18.41,3.85,22.99,3.85c17.97,0,32.58-23.12,32.58-51.55c0-21.21-10.11-33.88-19.89-33.88
				c-5.61,0-12.13,5.11-18.37,14.39c-5.38,8-8.52,16.03-8.55,16.11c-1.4,3.6-5.45,5.4-9.06,3.99c-3.6-1.4-5.39-5.45-3.99-9.06
				c1.57-4.04,15.99-39.43,39.97-39.43c16.43,0,33.89,16.78,33.89,47.88C948.14,673.7,927.68,702.49,901.56,702.49z"/>
			<path d="M563.63,702.49c-26.12,0-46.58-28.79-46.58-65.55c0-31.1,17.46-47.88,33.89-47.88c10.72,0,20.81,6.92,29.99,20.58
				c6.24,9.28,9.83,18.47,9.98,18.86c1.4,3.6-0.39,7.66-3.99,9.06c-3.6,1.4-7.66-0.39-9.06-3.99l0,0
				c-3.09-7.91-14.66-30.5-26.92-30.5c-9.78,0-19.89,12.67-19.89,33.88c0,28.42,14.62,51.55,32.58,51.55
				c4.58,0,16.53-2.36,22.99-3.85c3.76-0.87,7.52,1.48,8.39,5.25c0.87,3.77-1.48,7.52-5.25,8.39
				C587.89,698.72,571.29,702.49,563.63,702.49z"/>
			<path d="M732.45,745.65c-18.41,0-37.37-13.75-38.17-14.33c-2.23-1.63-2.71-4.76-1.08-6.99c1.63-2.23,4.76-2.71,6.99-1.08
				c0.19,0.14,17.17,12.4,32.26,12.4c13.56,0,30.05-8.1,30.22-8.18c2.47-1.23,5.47-0.22,6.7,2.26c1.23,2.47,0.22,5.47-2.25,6.7
				C766.35,736.8,748.38,745.65,732.45,745.65z"/>
			<ellipse cx="661.09" cy="608.8" rx="14.31" ry="19.08"/>
			<ellipse cx="801.8" cy="608.8" rx="14.31" ry="19.08"/>
			<path d="M732.45,683.64c-2.76,0-5-2.24-5-5s2.24-5,5-5c1.19-0.02,4.06-0.51,5.07-1.92c0.89-1.24,0.32-3.64-0.1-4.96
				c-3.02-9.48-3.26-26.19-3.27-26.89c-0.03-2.76,2.17-5.03,4.94-5.06c0.02,0,0.04,0,0.06,0c2.73,0,4.96,2.2,5,4.94
				c0,0.16,0.23,15.93,2.8,23.99c2.21,6.93,0.47,11.39-1.37,13.91C741.32,683.47,733.34,683.64,732.45,683.64z"/>
			<path d="M629.3,566.73c-1.55,0-3.08-0.72-4.05-2.07c-1.62-2.23-1.13-5.35,1.1-6.97c0.77-0.56,19.08-13.68,42.69-13.68
				c7.74,0,27.42,5.9,29.64,6.58c2.64,0.8,4.13,3.59,3.33,6.24c-0.8,2.64-3.6,4.13-6.24,3.33c-7.83-2.38-22.02-6.15-26.73-6.15
				c-20.28,0-36.65,11.65-36.82,11.77C631.34,566.42,630.32,566.73,629.3,566.73z"/>
			<path d="M837.93,566.74c-1.02,0-2.04-0.31-2.93-0.95c-0.24-0.17-16.59-11.77-36.82-11.77c-4.72,0-18.9,3.77-26.73,6.15
				c-2.64,0.8-5.44-0.69-6.24-3.33c-0.8-2.64,0.69-5.43,3.33-6.24c2.22-0.67,21.89-6.58,29.64-6.58c23.62,0,41.92,13.12,42.69,13.68
				c2.23,1.62,2.73,4.75,1.1,6.98C841,566.02,839.48,566.74,837.93,566.74z"/>
			<path d="M737.91,813.31c-34.63,0-98.5-15.66-132.07-50.49c-15.33-15.91-22.78-34.07-22.13-54c-0.83-15-2.03-31.56-3.3-49.08
				c-2.58-35.73-5.25-72.69-5.25-101.86c0-45.02,11.4-78.25,11.88-79.64c1.06-3.05,4.07-4.97,7.29-4.66
				c3.21,0.31,5.8,2.78,6.25,5.98c3.43,24.14,20.68,34.26,27.77,37.45c27.57-19.52,48.29-43.38,48.5-43.63
				c1.24-1.44,3.02-2.31,4.92-2.42c1.9-0.11,3.76,0.57,5.15,1.87c11.09,10.35,7.48,25.25,1.06,36.73
				c29.26,1.89,66.72-0.68,97.95-18.96c21.17-12.39,29.6-26.38,29.68-26.52c1.26-2.13,3.56-3.45,6.03-3.45c0,0,0,0,0.01,0
				c2.48,0,4.78,1.3,6.03,3.43c0.42,0.71,8.42,14.48,11.44,32.05c5.57-6.64,13.06-18,19.35-29.79c1.26-2.37,3.75-3.8,6.45-3.7
				c2.68,0.1,5.07,1.73,6.14,4.19c0.86,1.97,21.03,48.67,21.03,93.62c0,23.42-2.36,53.81-4.64,83.21
				c-1.63,21.05-3.18,40.93-3.92,58.39c0.1,21.02-9.52,41.87-27.83,60.32C822.87,795.45,770.5,813.31,737.91,813.31z M594.62,504.76
				c-2.75,13.39-5.46,31.98-5.46,53.12c0,28.67,2.65,65.36,5.22,100.85c1.28,17.71,2.49,34.44,3.33,49.63
				c0.01,0.21,0.01,0.43,0.01,0.64c-0.59,16.11,5.53,30.95,18.21,44.1c30.38,31.52,90.75,46.2,121.99,46.2
				c29.76,0,77.68-16.41,107.87-46.83c15.9-16.02,23.9-33.02,23.77-50.53c0-0.12,0-0.23,0.01-0.35c0.75-17.74,2.31-37.81,3.96-59.05
				c2.26-29.12,4.6-59.24,4.6-82.12c0-28.14-8.84-57.91-14.72-74.61c-1.42,2.3-2.97,4.76-4.62,7.23
				c-7.45,11.18-16.28,22.64-25.31,22.87c-1.92,0.05-3.71-0.67-5.06-1.99c-1.35-1.32-2.11-3.12-2.11-5.01
				c0-10.65-3.16-20.9-6.03-28.03c-5.38,5.97-13.91,13.86-26.31,21.25c-39.07,23.3-86.44,23.9-119.3,20.31
				c-2.58-0.28-4.79-1.97-5.75-4.38s-0.5-5.15,1.18-7.13c0.12-0.14,9.19-11.32,9.88-20.29c-9.22,9.59-26.18,25.96-46.72,40
				c-1.76,1.2-3.96,1.54-6,0.91C626.16,531.24,606.41,524.95,594.62,504.76z"/>
			<path d="M800.39,791.13c-21.71,9.72-44.35,15.18-62.47,15.18c-17.85,0-45.74-4.71-72.46-14.86
				c5.35,12.57,34.48,64.5,148.43,56.53l-10.21-56.79L800.39,791.13z"/>
			<path d="M743.05,1278.59c-50.72,0-102.44-8.58-153.72-25.49c-40.95-13.51-81.71-32.33-121.16-55.95
				c-67.17-40.21-106.71-79.86-108.36-81.53l-3.25-3.29l1.75-4.28c1.47-3.6,36.39-88.54,61.77-110.79
				c21.66-18.99,59.84-35.67,100.26-53.33c51.97-22.71,105.71-46.18,125.55-75.1c6.95-10.13,10.78-46.45,11.5-77.95l0.23-9.96
				l9.29,3.58c28.32,10.93,55.95,14.8,71.01,14.8c17.21,0,38.94-5.31,59.61-14.57l1.42-0.64l10.97,0.19l0.7,6.09
				c2.77,24.07,10.12,66.11,18.05,76.42c19.8,25.72,68.53,48.19,115.66,69.93c41.64,19.2,80.97,37.34,102.1,58.02l0,0
				c24.34,23.82,49.73,111.99,50.8,115.74l1.21,4.24l-3.3,2.92c-0.45,0.4-46.17,40.68-111.85,80.34
				c-38.64,23.33-76.58,41.94-112.77,55.29C825.03,1270.08,782.14,1278.59,743.05,1278.59z M373.08,1108.99
				c10.83,10.26,47.66,43.51,102.63,76.37c38.53,23.04,78.31,41.38,118.24,54.53c49.79,16.39,99.95,24.71,149.09,24.71
				c84.96,0,173.48-42.66,232.79-78.45c54.6-32.95,95.13-66.29,106.68-76.1c-8.11-27.29-28.83-88.61-45.88-105.29
				c-19.4-18.98-57.66-36.63-98.17-55.31c-48.67-22.44-98.99-45.65-120.89-74.1c-10.64-13.83-17.4-56.97-19.88-75.45
				c-20.74,8.56-42.25,13.41-59.79,13.41c-15.29,0-40.15-3.33-66.83-12.4c-0.94,23.28-3.96,61.74-13.65,75.85
				c-22.11,32.22-77.71,56.51-131.49,80c-39.4,17.21-76.61,33.47-96.64,51.03C411.36,1023.52,384.22,1082.48,373.08,1108.99z"/>
			<path d="M660.23,819.04c-62.84,0-140.24-12.18-159.94-68.88l-0.39-1.12V646.33c-0.86-5.47-6.56-44.94-1.02-95.48
				c3.44-31.41,10.55-60.53,21.13-86.55c12.94-31.84,31.13-59.1,54.09-81.06c4.27-38.01,26.96-63.72,67.5-76.42
				c33.81-10.59,73.84-10.31,103.07-10.1c3.84,0.03,7.51,0.05,10.97,0.05c59.95,0,108.27,19.92,143.64,59.21
				c43.3,48.11,58.82,117,64.21,166.32c5.58,51.01,1.89,91.11,1.44,95.67v141.4l-2.41,2.09c-2.23,1.94-55.84,47.52-156.05,53.87
				l-6.4,0.41l-0.97-6.34c-0.55-3.62-1.01-6.85-1.37-9.52c-20.75,8.56-42.26,13.41-59.81,13.41c-15.29,0-40.16-3.33-66.85-12.41
				c-0.14,3.39-0.34,7.31-0.61,11.57l-0.42,6.51l-6.52,0.04C662.43,819.03,661.33,819.04,660.23,819.04z M513.91,746.64
				c7.92,21.49,27.4,37.32,57.9,47.05c22.87,7.29,51.46,11.1,85.05,11.33c0.32-6.28,0.47-11.33,0.53-14.15l0.23-9.96l9.29,3.58
				c28.32,10.93,55.95,14.8,71.01,14.8c17.21,0,38.94-5.31,59.61-14.57l1.42-0.64l10.97,0.19l0.7,6.09
				c0.01,0.05,0.48,4.19,1.38,10.51c79.87-6.61,127.94-39.73,138.93-48.09V617.26l0.04-0.37c0.04-0.41,4.25-41.74-1.43-93.38
				c-5.19-47.18-19.93-112.93-60.7-158.19c-32.59-36.19-77.41-54.54-133.2-54.54c-3.48,0-7.19-0.03-11.07-0.05
				c-28.3-0.2-67.06-0.48-98.78,9.46c-36.05,11.3-55.03,33.2-58.01,66.97l-0.24,2.67l-1.96,1.83
				c-22.32,20.82-39.99,46.97-52.52,77.71c-10.09,24.77-16.9,52.57-20.22,82.63c-5.69,51.49,0.9,92.22,0.97,92.63l0.09,0.57l0,0.58
				V746.64z"/>
			<path d="M726.45,1263.73c-0.03,0-0.06,0-0.1,0c-2.76-0.04-5.23-1.69-6.33-4.22L575.74,926.15c-1.54-3.55,0.1-7.67,3.64-9.2
				c3.55-1.53,7.67,0.1,9.2,3.64l138.1,319.06l152.08-326.59c1.63-3.5,5.79-5.02,9.3-3.39c3.5,1.63,5.02,5.8,3.39,9.3L732.8,1259.69
				C731.65,1262.16,729.17,1263.73,726.45,1263.73z"/>
			<path d="M604.66,982.38c-3.33,0-6.29-2.39-6.89-5.79c-0.67-3.81,1.88-7.44,5.68-8.1c1.01-0.18,102.63-17.53,254.81-0.06
				c3.84,0.44,6.6,3.91,6.16,7.75s-3.91,6.6-7.75,6.16c-150-17.22-249.8-0.23-250.79-0.06
				C605.47,982.34,605.06,982.38,604.66,982.38z"/>
		</g>
	</g>
	<path d="M727.5,1254.94c-71.2,0-140.27-13.95-205.31-41.45c-62.81-26.57-119.21-64.59-167.65-113.03
		c-48.44-48.44-86.46-104.84-113.03-167.65c-27.51-65.03-41.45-134.11-41.45-205.31s13.95-140.27,41.45-205.31
		c26.57-62.81,64.59-119.21,113.03-167.65c48.44-48.44,104.84-86.46,167.65-113.03c65.03-27.51,134.11-41.45,205.31-41.45
		s140.27,13.95,205.31,41.45c62.81,26.57,119.21,64.59,167.65,113.03c48.44,48.44,86.46,104.84,113.03,167.65
		c27.51,65.03,41.45,134.11,41.45,205.31s-13.95,140.27-41.45,205.31c-26.57,62.81-64.59,119.21-113.03,167.65
		c-48.44,48.44-104.84,86.46-167.65,113.03C867.77,1240.99,798.7,1254.94,727.5,1254.94z M727.5,220.06
		c-68.51,0-134.96,13.42-197.51,39.87c-60.42,25.56-114.69,62.15-161.3,108.75s-83.2,100.87-108.75,161.3
		c-26.46,62.55-39.87,129.01-39.87,197.51s13.42,134.96,39.87,197.51c25.56,60.42,62.15,114.69,108.75,161.3
		s100.87,83.19,161.3,108.75c62.55,26.46,129.01,39.87,197.51,39.87s134.96-13.42,197.51-39.87
		c60.42-25.56,114.69-62.15,161.3-108.75s83.2-100.87,108.75-161.3c26.46-62.55,39.87-129.01,39.87-197.51
		s-13.42-134.96-39.87-197.51c-25.56-60.42-62.15-114.69-108.75-161.3s-100.87-83.19-161.3-108.75
		C862.46,233.48,796.01,220.06,727.5,220.06z"/>
</g>
</svg>
